# xmcd
#
# Track frame offsets: 
#        150
#        13900
#        27065
#        40375
#        54810
#        68537
#        79857
#        93415
#        106602
#        118295
#        130302
#        143682
#        156277
#        170970
#        183622
#        196440
#        209977
#        222450
#        234957
#        246557
#        258757
#        271362
#
# Disc length: 3764 seconds
#
# Revision: 0
# Processed by: cddbd v1.5PL3 Copyright (c) Steve Scherf et al.
# Submitted via: ExactAudioCopy v0.90b4
#
DISCID=480eb216
DTITLE=Blind Lemon Jefferson - Complete Recorded Works In Chronologica
DTITLE=l Order Vol.2 - 1927
DYEAR=1927
DGENRE=Blues
TTITLE0=Black Snake Moan
TTITLE1=Match Box Blues
TTITLE2=Easy Rider Blues
TTITLE3=Match Box Blues
TTITLE4=Match Box Blues
TTITLE5=Rising High Water Blues
TTITLE6=Weary Dogs Blues
TTITLE7=Right Of Way Blues
TTITLE8=Teddy Bear Blues (Take 2)
TTITLE9=Black Snake Dream Blues
TTITLE10=Hot Dogs
TTITLE11=He Arose From The Dead
TTITLE12=Struck Sorrow Blues
TTITLE13=Rambler Blues
TTITLE14=Chinch Bug Blues
TTITLE15=Deceitful Brownskin Blues
TTITLE16=Sunshine Special
TTITLE17=Gone Dead on you Blues
TTITLE18=Where Shall I Be?
TTITLE19=See That My Grave's Kept Clean
TTITLE20=One Dime Blues
TTITLE21=Lonesome House Blues
EXTD=
EXTT0=
EXTT1=
EXTT2=
EXTT3=
EXTT4=
EXTT5=
EXTT6=
EXTT7=
EXTT8=
EXTT9=
EXTT10=
EXTT11=
EXTT12=
EXTT13=
EXTT14=
EXTT15=
EXTT16=
EXTT17=
EXTT18=
EXTT19=
EXTT20=
EXTT21=
PLAYORDER=
